<svg xmlns="http://www.w3.org/2000/svg" width="80" height="80" viewBox="0 0 80 80">
  <g id="Group_14" data-name="Group 14" transform="translate(-1367 -8521)">
    <g id="Group_537" data-name="Group 537" transform="translate(300 1402)">
      <g id="Ellipse_29" data-name="Ellipse 29" transform="translate(1067 7119)" fill="none" stroke="#0a0b0d" stroke-width="1">
        <circle cx="40" cy="40" r="40" stroke="none"/>
        <circle cx="40" cy="40" r="39.5" fill="none"/>
      </g>
      <g id="Ellipse_30" data-name="Ellipse 30" transform="translate(1068 7120)" fill="#fff" stroke="#2e3138" stroke-width="1.5">
        <circle cx="39" cy="39" r="39" stroke="none"/>
        <circle cx="39" cy="39" r="38.25" fill="none"/>
      </g>
    </g>
    <path id="Subtraction_4" data-name="Subtraction 4" d="M30,32l0,0-.383-.408L22.8,24.336,22.481,28H4a4,4,0,0,1-4-4V4A4,4,0,0,1,4,0H26a4,4,0,0,1,4,4V32ZM21.726,17.669a5.466,5.466,0,0,1-3.1,1.981c.494.61,1.09,1.3,1.13,1.35a7.05,7.05,0,0,0,4.038-1.31A4.837,4.837,0,0,0,25,18.466a22.183,22.183,0,0,0-2.464-9.715A8.675,8.675,0,0,0,17.742,7h-.019l-.24.266a11.608,11.608,0,0,1,4.262,2.115A14.62,14.62,0,0,0,14.89,7.691,15.219,15.219,0,0,0,8.955,8.9c-.484.216-.824.388-.951.452l-.019.009-.038.02,0-.005a11.855,11.855,0,0,1,4.5-2.176L12.277,7h-.019A8.676,8.676,0,0,0,7.466,8.75,22.112,22.112,0,0,0,5,18.466a4.893,4.893,0,0,0,1.193,1.223A7.008,7.008,0,0,0,10.221,21s.628-.742,1.148-1.383a5.354,5.354,0,0,1-3-1.967c.2.138.518.313.622.371l.048.028.032.018a12.761,12.761,0,0,0,6.013,1.484,12.288,12.288,0,0,0,4.672-.9A9.926,9.926,0,0,0,21.726,17.669Zm-3.671-.749a1.812,1.812,0,1,1,1.664-1.806A1.742,1.742,0,0,1,18.055,16.919Zm-6.659,0a1.812,1.812,0,0,1,0-3.612,1.812,1.812,0,0,1,0,3.612Z" transform="translate(1392 8545)" fill="#fd0d1b"/>
  </g>
</svg>
