<svg xmlns="http://www.w3.org/2000/svg" width="80" height="80" viewBox="0 0 80 80">
  <g id="Group_16" data-name="Group 16" transform="translate(-1567 -8521)">
    <g id="Group_539" data-name="Group 539" transform="translate(500 1402)">
      <g id="Ellipse_29" data-name="Ellipse 29" transform="translate(1067 7119)" fill="none" stroke="#0a0b0d" stroke-width="1">
        <circle cx="40" cy="40" r="40" stroke="none"/>
        <circle cx="40" cy="40" r="39.5" fill="none"/>
      </g>
      <g id="Ellipse_30" data-name="Ellipse 30" transform="translate(1068 7120)" fill="#fff" stroke="#2e3138" stroke-width="1.5">
        <circle cx="39" cy="39" r="39" stroke="none"/>
        <circle cx="39" cy="39" r="38.25" fill="none"/>
      </g>
    </g>
    <path id="Icon_awesome-reddit-alien" data-name="Icon awesome-reddit-alien" d="M29.75,14.5a3.5,3.5,0,0,0-2.556,1.135,16.671,16.671,0,0,0-9.247-3.021L19.815,3.7l5.949,1.414a2.729,2.729,0,0,0,2.644,2.8,2.771,2.771,0,0,0,2.678-2.835,2.767,2.767,0,0,0-2.678-2.835,2.706,2.706,0,0,0-2.381,1.571L19.458,2.272a.629.629,0,0,0-.742.507L16.666,12.6a16.886,16.886,0,0,0-9.193,3.056A3.492,3.492,0,0,0,4.883,14.5c-3.75,0-4.977,5.327-1.545,7.148a8.446,8.446,0,0,0-.175,1.764c0,5.984,6.367,10.833,14.184,10.833,7.851,0,14.218-4.849,14.218-10.833a7.192,7.192,0,0,0-.209-1.792C34.721,19.789,33.48,14.5,29.75,14.5ZM8.781,22.024a2.749,2.749,0,0,1,2.678-2.835,2.823,2.823,0,0,1,0,5.634,2.735,2.735,0,0,1-2.678-2.8ZM23.235,28.7c-2.455,2.6-9.382,2.6-11.837,0a.692.692,0,0,1,0-.978.622.622,0,0,1,.89,0c1.875,2.035,8.093,2.071,10.049,0a.622.622,0,0,1,.89,0A.686.686,0,0,1,23.235,28.7Zm-.054-3.871a2.821,2.821,0,1,1,2.678-2.8A2.729,2.729,0,0,1,23.181,24.831Z" transform="translate(1589.681 8542.757)" fill="#fd0d1b"/>
  </g>
</svg>
