<svg xmlns="http://www.w3.org/2000/svg" width="80" height="80" viewBox="0 0 80 80">
  <g id="Group_15" data-name="Group 15" transform="translate(-1467 -8521)">
    <g id="Group_538" data-name="Group 538" transform="translate(400 1402)">
      <g id="Ellipse_29" data-name="Ellipse 29" transform="translate(1067 7119)" fill="none" stroke="#0a0b0d" stroke-width="1">
        <circle cx="40" cy="40" r="40" stroke="none"/>
        <circle cx="40" cy="40" r="39.5" fill="none"/>
      </g>
      <g id="Ellipse_30" data-name="Ellipse 30" transform="translate(1068 7120)" fill="#fff" stroke="#2e3138" stroke-width="1.5">
        <circle cx="39" cy="39" r="39" stroke="none"/>
        <circle cx="39" cy="39" r="38.25" fill="none"/>
      </g>
    </g>
    <path id="Subtraction_5" data-name="Subtraction 5" d="M24,32H8a8.009,8.009,0,0,1-8-8V8A8.009,8.009,0,0,1,8,0H24a8.009,8.009,0,0,1,8,8V24A8.009,8.009,0,0,1,24,32ZM16.059,8.554a7.39,7.39,0,1,0,1.085.08A7.379,7.379,0,0,0,16.059,8.554Zm8.556-2.4a1.231,1.231,0,1,0,1.23,1.23A1.232,1.232,0,0,0,24.616,6.154ZM16.064,20.862a4.924,4.924,0,0,1,0-9.847,5.012,5.012,0,0,1,.724.053,4.924,4.924,0,0,1-.72,9.794Z" transform="translate(1491 8545)" fill="#fd0d1b"/>
  </g>
</svg>
