<svg xmlns="http://www.w3.org/2000/svg" width="80" height="80" viewBox="0 0 80 80">
  <g id="Group_13" data-name="Group 13" transform="translate(-1267 -8521)">
    <g id="Group_536" data-name="Group 536" transform="translate(200 1402)">
      <g id="Ellipse_29" data-name="Ellipse 29" transform="translate(1067 7119)" fill="none" stroke="#0a0b0d" stroke-width="1">
        <circle cx="40" cy="40" r="40" stroke="none"/>
        <circle cx="40" cy="40" r="39.5" fill="none"/>
      </g>
      <g id="Ellipse_30" data-name="Ellipse 30" transform="translate(1068 7120)" fill="#fff" stroke="#2e3138" stroke-width="1.5">
        <circle cx="39" cy="39" r="39" stroke="none"/>
        <circle cx="39" cy="39" r="38.25" fill="none"/>
      </g>
    </g>
    <path id="Icon_awesome-youtube" data-name="Icon awesome-youtube" d="M32.381,7.944a3.978,3.978,0,0,0-2.829-2.786c-2.5-.658-12.5-.658-12.5-.658s-10.007,0-12.5.658A3.978,3.978,0,0,0,1.719,7.944a40.393,40.393,0,0,0-.669,7.584s0,7.114.669,9.572a3.92,3.92,0,0,0,2.829,2.741c2.5.658,12.5.658,12.5.658s10.007,0,12.5-.658A3.92,3.92,0,0,0,32.381,25.1c.669-2.457.669-9.572.669-9.572a40.393,40.393,0,0,0-.669-7.584Zm-18.6,13.239v-9.31l8.364,4.655-8.364,4.655Z" transform="translate(1289.95 8544.5)" fill="#fd0d1b"/>
  </g>
</svg>
