<svg xmlns="http://www.w3.org/2000/svg" width="33" height="33" viewBox="0 0 33 33">
  <path id="Icon_awesome-plus" data-name="Icon awesome-plus" d="M27.857,14.036H18.214V4.393A2.143,2.143,0,0,0,16.071,2.25H13.929a2.143,2.143,0,0,0-2.143,2.143v9.643H2.143A2.143,2.143,0,0,0,0,16.179v2.143a2.143,2.143,0,0,0,2.143,2.143h9.643v9.643a2.143,2.143,0,0,0,2.143,2.143h2.143a2.143,2.143,0,0,0,2.143-2.143V20.464h9.643A2.143,2.143,0,0,0,30,18.321V16.179A2.143,2.143,0,0,0,27.857,14.036Z" transform="translate(1.5 -0.75)" fill="#fd0d1b" stroke="#fff" stroke-width="3"/>
</svg>
